<?xml version="1.0" encoding="UTF-8" standalone="no"?>
<!-- Generator: Adobe Illustrator 14.0.0, SVG Export Plug-In . SVG Version: 6.00 Build 43363)  -->

<svg
   xmlns:dc="http://purl.org/dc/elements/1.1/"
   xmlns:cc="http://creativecommons.org/ns#"
   xmlns:rdf="http://www.w3.org/1999/02/22-rdf-syntax-ns#"
   xmlns:svg="http://www.w3.org/2000/svg"
   xmlns="http://www.w3.org/2000/svg"
   xmlns:sodipodi="http://sodipodi.sourceforge.net/DTD/sodipodi-0.dtd"
   xmlns:inkscape="http://www.inkscape.org/namespaces/inkscape"
   version="1.1"
   id="Layer_1"
   x="0px"
   y="0px"
   width="400"
   height="200"
   viewBox="0 0 400 200"
   enable-background="new 0 0 612 792"
   xml:space="preserve"
   inkscape:version="0.48.1 "
   sodipodi:docname="credicoop.svg"><metadata
   id="metadata3049"><rdf:RDF><cc:Work
       rdf:about=""><dc:format>image/svg+xml</dc:format><dc:type
         rdf:resource="http://purl.org/dc/dcmitype/StillImage" /><dc:title></dc:title></cc:Work></rdf:RDF></metadata><defs
   id="defs3047">
	
	
	
	
	
	
	
	
	
	
	
	
</defs><sodipodi:namedview
   pagecolor="#ffffff"
   bordercolor="#666666"
   borderopacity="1"
   objecttolerance="10"
   gridtolerance="10"
   guidetolerance="10"
   inkscape:pageopacity="0"
   inkscape:pageshadow="2"
   inkscape:window-width="1366"
   inkscape:window-height="706"
   id="namedview3045"
   showgrid="false"
   inkscape:zoom="2.0731731"
   inkscape:cx="217.97903"
   inkscape:cy="100.50411"
   inkscape:window-x="-8"
   inkscape:window-y="-8"
   inkscape:window-maximized="1"
   inkscape:current-layer="Layer_1" />
<g
   id="g3063"
   transform="matrix(1.2118524,0,0,1.2118524,-10.547888,-8.1434688)"><polygon
     transform="matrix(1.8130977,0,0,1.8130977,-380.35237,-629.85178)"
     clip-rule="evenodd"
     points="217.504,421.042 217.504,353.643 217.504,353.643 393.252,353.643 393.252,421.042 "
     id="polygon3023"
     style="fill:#6a6e66;fill-rule:evenodd" /><path
     clip-rule="evenodd"
     d="m 59.445301,60.914867 v 8.68112 h -4.19732 v -0.47322 c 0,-2.09413 -0.52036,-3.63345 -1.55745,-4.60165 -1.03891,-0.97544 -2.6852,-1.45954 -4.94069,-1.45954 -3.285337,0 -5.8273,1.12775 -7.616827,3.39231 -1.789527,2.26456 -2.685198,5.47737 -2.685198,9.64024 0,4.12661 0.921054,7.36661 2.764974,9.7037 1.843921,2.34433 4.376818,3.51559 7.591441,3.51559 2.30807,0 3.96524,-0.53667 4.97695,-1.61003 1.02078,-1.07335 1.52119,-2.84656 1.52119,-5.30875 h 4.14474 v 9.22867 c -1.94182,0.58926 -3.88547,1.03709 -5.81823,1.33263 -1.94183,0.29553 -3.89272,0.44783 -5.85449,0.44783 -5.486434,0 -9.683755,-1.49399 -12.593777,-4.47472 -2.910022,-2.98074 -4.367752,-7.27778 -4.367752,-12.88932 0,-5.37946 1.530254,-9.57678 4.592576,-12.57564 3.051444,-2.99886 7.348485,-4.49286 12.871183,-4.49286 1.61184,0 3.33972,0.16137 5.1909,0.4841 1.85298,0.32273 3.8492,0.81589 5.97778,1.45954 l 0,0 z m 15.73587,2.77586 v 10.91122 h 2.46038 c 2.42592,0 4.17012,-0.41158 5.22716,-1.24379 1.05703,-0.83221 1.58465,-2.19203 1.58465,-4.08128 0,-1.97809 -0.50948,-3.39956 -1.52119,-4.26803 -1.01171,-0.87754 -2.6852,-1.31631 -5.02228,-1.31631 h -2.72872 l 0,-0.002 z m -11.27746,-3.958 h 13.63993 c 4.8863,0 8.41459,0.69805 10.5613,2.08507 2.14852,1.38702 3.22187,3.64432 3.22187,6.75016 0,2.01254 -0.49135,3.66064 -1.48674,4.95882 -0.98451,1.29818 -2.42411,2.16484 -4.31336,2.62174 1.29818,0.18856 2.27362,0.62552 2.92815,1.31631 0.65272,0.67991 1.25285,2.03248 1.7986,4.06315 0.13417,0.50223 0.31366,1.2184 0.51854,2.12133 0.6364,2.58729 1.18939,4.17193 1.68256,4.75394 0.4025,0.46596 0.87572,0.81408 1.44141,1.04616 0.56387,0.22482 1.22565,0.34086 1.99622,0.34086 h 0.25927 v 2.85381 h -9.86325 c -0.7887,-1.76414 -1.45048,-3.96524 -2.00528,-6.60511 -0.54575,-2.64169 -0.941,-4.28798 -1.16401,-4.93163 -0.36806,-1.04797 -0.97545,-1.81672 -1.83486,-2.29175 -0.85034,-0.4841 -2.03248,-0.72524 -3.53554,-0.72524 h -2.56916 v 7.47359 c 0,1.61184 0.25021,2.71239 0.75969,3.32159 0.51129,0.60014 1.3979,0.90474 2.67794,0.90474 h 0.67992 v 2.85381 c -0.89567,-0.0363 -1.86931,-0.0616 -2.93541,-0.0798 -1.06429,-0.0181 -2.63987,-0.029 -4.72493,-0.029 -2.13039,0 -3.7241,0.0109 -4.77933,0.029 -1.06429,0.0181 -2.03973,0.0435 -2.95353,0.0798 v -2.85381 h 0.62552 c 1.28186,0 2.16665,-0.3046 2.67613,-0.90474 0.51129,-0.6092 0.7615,-1.70975 0.7615,-3.32159 v -18.80545 c 0,-1.59372 -0.25021,-2.6852 -0.7615,-3.29259 -0.50948,-0.60013 -1.39609,-0.90473 -2.67613,-0.90473 h -0.62552 v -2.82844 l 0,0 z m 33.87773,0.10879 h 26.672479 v 9.07637 h -3.04238 v -1.46861 c 0,-1.39609 -0.40251,-2.37153 -1.20934,-2.92634 -0.80501,-0.54574 -2.31895,-0.82496 -4.53818,-0.82496 h -6.60693 v 10.24944 h 1.86205 c 1.87112,0 3.08771,-0.2774 3.64252,-0.84128 0.56387,-0.55481 0.85034,-1.70068 0.86847,-3.43763 l 2.90821,-0.0272 v 11.93925 h -2.88101 c -0.0907,-1.71882 -0.40251,-2.84656 -0.93194,-3.38324 -0.53667,-0.54574 -1.65535,-0.81408 -3.37417,-0.81408 h -2.09594 v 11.40438 h 6.00679 c 2.8647,0 4.68142,-0.4025 5.44292,-1.20933 0.75969,-0.79595 1.16401,-2.55103 1.21659,-5.23623 h 3.01699 v 10.30202 H 97.779621 v -2.85381 h 0.62734 c 1.28004,0 2.166649,-0.29554 2.677939,-0.87754 0.50948,-0.59107 0.75969,-1.70069 0.75969,-3.34698 v -18.79638 c 0,-1.5919 -0.25021,-2.69427 -0.75969,-3.29259 -0.51129,-0.60013 -1.397899,-0.90474 -2.677939,-0.90474 h -0.62734 v -2.73052 l 0.002,0 z m 42.167209,3.74949 v 25.19661 h 3.43763 c 4.20639,0 7.2941,-1.06428 9.25405,-3.19467 1.95996,-2.13946 2.93541,-5.49732 2.93541,-10.06995 0,-4.10848 -1.03891,-7.12547 -3.12397,-9.04917 -2.07781,-1.92551 -5.35226,-2.88282 -9.82699,-2.88282 h -2.67613 l 0,0 z m -11.27747,-3.85828 h 14.7151 c 6.77555,0 11.78695,1.30725 15.01971,3.92899 3.23094,2.62355 4.85003,6.6867 4.85003,12.17313 0,5.62967 -1.52119,9.83606 -4.56538,12.63004 -3.03331,2.78311 -7.60776,4.17919 -13.71246,4.17919 h -16.30881 v -2.85381 h 0.62733 c 1.28005,0 2.16484,-0.3046 2.67613,-0.90474 0.50948,-0.6092 0.75969,-1.70975 0.75969,-3.32159 v -18.80545 c 0,-1.59372 -0.25021,-2.6852 -0.75969,-3.29259 -0.51129,-0.60013 -1.39608,-0.90473 -2.67613,-0.90473 h -0.62733 v -2.82844 l 0.002,0 z m 39.15929,0 c 2.11226,0.0381 3.70416,0.0635 4.77026,0.0816 1.06429,0.0181 2.05786,0.0272 2.96079,0.0272 0.87754,0 1.85298,-0.007 2.91908,-0.0272 1.06429,-0.0181 2.658,-0.0435 4.77026,-0.0816 v 2.83025 h -0.70892 c -1.27823,0 -2.16484,0.3046 -2.67613,0.90473 -0.50948,0.60739 -0.7615,1.70069 -0.7615,3.29259 v 18.80545 c 0,1.61184 0.26108,2.71239 0.77057,3.32159 0.51854,0.60014 1.40515,0.90474 2.66706,0.90474 h 0.70892 v 2.85382 c -0.91199,-0.0363 -1.88924,-0.0616 -2.95353,-0.0798 -1.05704,-0.0181 -2.63262,-0.029 -4.73581,-0.029 -2.12858,0 -3.72229,0.0109 -4.77933,0.029 -1.06429,0.0181 -2.03973,0.0435 -2.95354,0.0798 v -2.85382 h 0.62734 c 1.28004,0 2.16483,-0.3046 2.67613,-0.90474 0.50948,-0.6092 0.75969,-1.70975 0.75969,-3.32159 v -18.80726 c 0,-1.59372 -0.25202,-2.6852 -0.75969,-3.29259 -0.5113,-0.60013 -1.3979,-0.90473 -2.67613,-0.90473 h -0.62734 v -2.82844 l 0.002,0 z m 48.2157,1.18214 v 8.68112 h -4.19732 v -0.47322 c 0,-2.09413 -0.51854,-3.63345 -1.55563,-4.60165 -1.03891,-0.97544 -2.6852,-1.45954 -4.94251,-1.45954 -3.28533,0 -5.82729,1.12775 -7.61682,3.39231 -1.78953,2.26456 -2.68339,5.47737 -2.68339,9.64024 0,4.12661 0.92106,7.36661 2.76498,9.7037 1.84392,2.34433 4.37681,3.51559 7.59144,3.51559 2.30807,0 3.96524,-0.53667 4.97514,-1.61003 1.02077,-1.07335 1.523,-2.84656 1.523,-5.30875 h 4.14293 v 9.22867 c -1.94183,0.58926 -3.88547,1.03709 -5.81823,1.33263 -1.94183,0.29553 -3.89272,0.44783 -5.8545,0.44783 -5.48643,0 -9.68375,-1.49399 -12.59377,-4.47472 -2.90821,-2.98074 -4.36594,-7.27778 -4.36594,-12.88932 0,-5.37946 1.53025,-9.57678 4.59076,-12.57564 3.05326,-2.99886 7.34849,-4.49286 12.87118,-4.49286 1.61185,0 3.33973,0.16137 5.1909,0.4841 1.85299,0.32273 3.84921,0.81589 5.97778,1.45954 l 0,0 z m 21.59037,2.09413 c -2.85381,0 -5.0386,1.11868 -6.55072,3.35786 -1.51394,2.23736 -2.26456,5.47737 -2.26456,9.72908 0,4.21727 0.75969,7.44639 2.28269,9.69463 1.52119,2.24643 3.69509,3.36511 6.5344,3.36511 2.84657,0 5.02954,-1.11868 6.54166,-3.34879 1.51394,-2.2283 2.26456,-5.45924 2.26456,-9.71095 0,-4.26984 -0.75062,-7.50985 -2.25368,-9.73815 -1.50668,-2.23011 -3.68965,-3.34879 -6.55435,-3.34879 l 0,0 z m 0,-4.03595 c 5.2181,0 9.29031,1.49399 12.19127,4.49285 2.90096,2.99887 4.34962,7.23245 4.34962,12.68262 0,5.45924 -1.45048,9.69282 -4.34962,12.71888 -2.89914,3.02606 -6.97317,4.53818 -12.19127,4.53818 -5.22716,0 -9.29938,-1.51212 -12.20033,-4.53818 -2.90096,-3.02606 -4.34962,-7.25964 -4.34962,-12.71888 0,-5.45017 1.45047,-9.68375 4.34236,-12.68262 2.88827,-2.99886 6.9623,-4.49285 12.20759,-4.49285 l 0,0 z m 37.9155,4.03595 c -2.85563,0 -5.0386,1.11868 -6.55253,3.35786 -1.51213,2.23736 -2.26456,5.47737 -2.26456,9.72908 0,4.21727 0.7615,7.44639 2.28269,9.69463 1.523,2.24643 3.6969,3.36511 6.5344,3.36511 2.84475,0 5.02953,-1.11868 6.54166,-3.34879 1.51393,-2.2283 2.26456,-5.45924 2.26456,-9.71095 0,-4.26984 -0.75063,-7.50985 -2.2555,-9.73815 -1.50306,-2.23011 -3.68784,-3.34879 -6.55072,-3.34879 l 0,0 z m 0,-4.03595 c 5.2181,0 9.29031,1.49399 12.19127,4.49285 2.90096,2.99887 4.34962,7.23245 4.34962,12.68262 0,5.45924 -1.45048,9.69282 -4.34962,12.71888 -2.89914,3.02606 -6.97317,4.53818 -12.19127,4.53818 -5.22716,0 -9.30119,-1.51212 -12.20033,-4.53818 -2.90096,-3.02606 -4.34962,-7.25964 -4.34962,-12.71888 0,-5.45017 1.45047,-9.68375 4.34236,-12.68262 2.88827,-2.99886 6.96049,-4.49285 12.20759,-4.49285 l 0,0 z m 31.85431,4.56538 v 11.7525 h 2.82844 c 2.06874,0 3.60625,-0.5113 4.6379,-1.53026 1.02984,-1.02984 1.54839,-2.56916 1.54839,-4.63609 0,-1.80041 -0.54575,-3.17836 -1.63723,-4.14474 -1.09149,-0.95732 -2.63987,-1.4396 -4.64516,-1.4396 h -2.73234 l 0,-0.002 z m -11.35905,-3.8057 h 13.72152 c 4.8863,0 8.40371,0.75244 10.53591,2.2555 2.13039,1.50487 3.19649,3.94892 3.19649,7.33942 0,3.29258 -0.95006,5.70944 -2.84656,7.25964 -1.89831,1.54839 -4.85185,2.31714 -8.87149,2.31714 h -4.37682 v 6.65951 c 0,1.61184 0.25021,2.71964 0.76151,3.32159 0.50948,0.60014 1.39608,0.90474 2.67613,0.90474 h 0.62733 v 2.85381 c -0.9138,-0.0363 -1.88925,-0.0616 -2.95354,-0.0798 -1.05703,-0.0181 -2.6308,-0.029 -4.73399,-0.029 -2.11226,0 -3.70598,0.0109 -4.77026,0.029 -1.06611,0.0181 -2.05062,0.0435 -2.96442,0.0798 v -2.85381 h 0.70892 c 1.2601,0 2.14852,-0.3046 2.66707,-0.90474 0.50948,-0.60013 0.77056,-1.70975 0.77056,-3.32159 v -18.80545 c 0,-1.59372 -0.25202,-2.6852 -0.7615,-3.29259 -0.50948,-0.60013 -1.39789,-0.90473 -2.67613,-0.90473 h -0.70892 v -2.82844 l -0.002,0 z"
     id="path3025"
     inkscape:connector-curvature="0"
     style="fill:#ffffff;fill-rule:evenodd" /><path
     clip-rule="evenodd"
     d="m 130.92305,36.461617 v 6.73022 h 2.27 c 1.27098,0 2.25912,-0.28284 2.95897,-0.84309 0.69986,-0.5675 1.04616,-1.35619 1.04616,-2.38241 0,-1.1495 -0.3463,-2.01979 -1.04616,-2.61267 -0.69985,-0.59288 -1.7315,-0.89205 -3.0877,-0.89205 h -2.14127 l 0,0 z m 0,-8.17344 v 6.12102 h 2.05243 c 1.16945,0 2.05061,-0.26653 2.65437,-0.79595 0.59832,-0.53487 0.89749,-1.32356 0.89749,-2.36609 0,-0.99358 -0.29373,-1.7297 -0.88661,-2.22286 -0.58744,-0.49135 -1.47405,-0.73612 -2.66525,-0.73612 h -2.05243 l 0,0 z m -6.66676,-2.36065 h 9.42267 c 2.35521,0 4.11392,0.41157 5.27249,1.2329 1.15857,0.82859 1.73694,2.07781 1.73694,3.76037 0,1.12774 -0.29372,2.05061 -0.87572,2.76679 -0.58201,0.7198 -1.46498,1.25466 -2.6435,1.59733 1.42147,0.23933 2.48395,0.75788 3.19468,1.54839 0.71073,0.79595 1.06248,1.8693 1.06248,3.22731 0,1.85299 -0.60377,3.23638 -1.81492,4.14475 -1.20752,0.90836 -3.05144,1.36163 -5.52269,1.36163 h -9.8288 v -1.70431 h 0.37531 c 0.76331,0 1.29274,-0.17587 1.59734,-0.52399 0.30278,-0.35174 0.45327,-1.01533 0.45327,-1.99803 v -11.22307 c 0,-0.95007 -0.15049,-1.60278 -0.45327,-1.9654 -0.3046,-0.35718 -0.83403,-0.54031 -1.59734,-0.54031 h -0.37531 v -1.68436 l -0.004,0 z m 29.41751,2.39329 -2.92271,8.17163 h 5.53901 l -2.6163,-8.17163 0,0 z m -2.41142,-2.39329 h 5.26161 l 5.6623,14.83839 c 0.50223,1.28186 0.93012,2.10501 1.29274,2.47306 0.35718,0.36444 0.82859,0.57113 1.39971,0.62552 v 1.70431 c -0.52398,-0.0217 -1.10055,-0.0381 -1.7315,-0.0471 -0.63096,-0.009 -1.57015,-0.0163 -2.82662,-0.0163 -1.24923,0 -2.19023,0.005 -2.81393,0.0163 -0.62552,0.0109 -1.20752,0.0272 -1.75145,0.0471 v -1.68799 c 0.91924,-0.0417 1.55382,-0.17043 1.90012,-0.38438 0.3463,-0.21394 0.52399,-0.57112 0.52399,-1.07335 0,-0.14323 -0.0254,-0.34086 -0.0798,-0.59288 -0.0471,-0.25202 -0.12873,-0.54575 -0.22845,-0.87573 l -0.70529,-2.08325 h -7.21613 l -0.82859,2.5057 c -0.0852,0.23933 -0.14505,0.44421 -0.18312,0.60739 -0.0363,0.17043 -0.0526,0.32636 -0.0526,0.46959 0,0.50223 0.14323,0.85035 0.42608,1.04253 0.28828,0.19219 0.93012,0.32092 1.91825,0.38438 v 1.68799 c -0.52942,-0.0217 -1.10055,-0.0381 -1.70793,-0.0471 -0.61464,-0.0109 -1.51757,-0.0163 -2.71965,-0.0163 -1.16401,0 -2.03611,0.005 -2.59636,0.0163 -0.56568,0.0109 -1.08423,0.0272 -1.5647,0.0471 v -1.68799 c 0.56025,-0.0326 1.04072,-0.26109 1.43235,-0.68898 0.39163,-0.42789 0.81227,-1.20752 1.2601,-2.33345 l 5.92883,-14.93086 0,0 z m 14.231,0 h 7.92143 l 7.52617,16.08943 -0.0979,-11.89574 c 0,-0.97182 -0.14867,-1.62816 -0.45328,-1.98171 -0.3046,-0.34631 -0.83402,-0.52399 -1.59733,-0.52399 h -0.38982 v -1.68799 h 0.0961 c 1.77503,0.0417 3.11491,0.0653 4.02327,0.0653 0.91924,0 2.28631,-0.0218 4.09579,-0.0653 h 0.0979 v 1.68799 h -0.38981 c -0.76513,0 -1.29274,0.18312 -1.59734,0.5403 -0.3046,0.36262 -0.45509,1.01534 -0.45509,1.9654 v 15.44759 h -5.44836 l -7.52617,-16.02959 0.0653,11.80508 c 0,0.97182 0.14868,1.6336 0.45328,1.98715 0.3046,0.35718 0.83221,0.53305 1.59734,0.53305 h 0.38981 v 1.70431 c -0.49135,-0.0217 -1.02077,-0.0381 -1.58646,-0.0471 -0.57112,-0.0109 -1.4269,-0.0163 -2.56553,-0.0163 -1.13319,0 -1.98534,0.005 -2.55828,0.0163 -0.56569,0.0109 -1.09874,0.0272 -1.60278,0.0471 v -1.70431 h 0.38982 c 0.76331,0 1.29818,-0.18131 1.61365,-0.54937 0.31548,-0.36262 0.4696,-1.02077 0.4696,-1.97083 v -11.22308 c 0,-0.941 -0.15412,-1.5919 -0.4696,-1.95452 -0.31547,-0.36806 -0.84853,-0.55118 -1.61365,-0.55118 h -0.38982 v -1.68799 l 0.002,0 z m 40.48285,0.70529 v 5.18002 h -2.50389 v -0.28284 c 0,-1.24923 -0.31185,-2.16847 -0.93012,-2.74503 -0.62008,-0.58201 -1.60459,-0.87029 -2.94991,-0.87029 -1.95996,0 -3.47752,0.67266 -4.54543,2.02342 -1.06792,1.35076 -1.60278,3.26901 -1.60278,5.75296 0,2.46218 0.55118,4.39676 1.64992,5.79103 1.09873,1.3979 2.61086,2.09957 4.52912,2.09957 1.37976,0 2.3679,-0.32092 2.97166,-0.96276 0.6092,-0.64183 0.90836,-1.69887 0.90836,-3.16748 h 2.47126 v 5.50819 c -1.16039,0.35174 -2.31714,0.62008 -3.47209,0.79595 -1.15856,0.17587 -2.32257,0.26653 -3.49383,0.26653 -3.27446,0 -5.78016,-0.89205 -7.51529,-2.67069 -1.73695,-1.77865 -2.60724,-4.34237 -2.60724,-7.69116 0,-3.211 0.9138,-5.71489 2.73959,-7.50442 1.82216,-1.78952 4.38588,-2.68157 7.6821,-2.68157 0.95913,0 1.99259,0.0961 3.09677,0.28829 1.10961,0.19218 2.30082,0.48591 3.5718,0.87028 l 0,0 z m 12.88387,1.24923 c -1.70431,0 -3.00793,0.66722 -3.91085,2.00347 -0.90111,1.33444 -1.35076,3.26901 -1.35076,5.80554 0,2.51476 0.45509,4.4439 1.36164,5.78378 0.90836,1.34169 2.20835,2.00891 3.89997,2.00891 1.69887,0 3.00068,-0.66722 3.9036,-1.99803 0.90292,-1.329 1.35076,-3.25814 1.35076,-5.79466 0,-2.5474 -0.44784,-4.48198 -1.34532,-5.81098 -0.89748,-1.33081 -2.19929,-1.99803 -3.90904,-1.99803 l 0,0 z m 0,-2.40961 c 3.11309,0 5.54445,0.89204 7.27415,2.68157 1.73151,1.78953 2.59817,4.31517 2.59817,7.56787 0,3.25814 -0.86666,5.78378 -2.59817,7.59144 -1.7297,1.80585 -4.16106,2.70877 -7.27415,2.70877 -3.12034,0 -5.5517,-0.90292 -7.2814,-2.70877 -1.73151,-1.80584 -2.59635,-4.33149 -2.59635,-7.59144 0,-3.2527 0.86484,-5.78015 2.59091,-7.56787 1.72607,-1.78771 4.15744,-2.68157 7.28684,-2.68157 l 0,0 z"
     id="path3027"
     inkscape:connector-curvature="0"
     style="fill:#ffffff;fill-rule:evenodd" /><path
     clip-rule="evenodd"
     d="m 102.12199,110.77143 v 2.25187 h -1.08967 v -0.12329 c 0,-0.54393 -0.13417,-0.94281 -0.40432,-1.19302 -0.27015,-0.25383 -0.696229,-0.37712 -1.281859,-0.37712 -0.85216,0 -1.51212,0.29191 -1.97628,0.87754 -0.46415,0.58925 -0.69623,1.42147 -0.69623,2.50389 0,1.06972 0.23933,1.911 0.71799,2.51839 0.47866,0.60739 1.135,0.91199 1.96903,0.91199 0.60013,0 1.029839,-0.13961 1.290919,-0.41702 0.26471,-0.2774 0.39526,-0.73793 0.39526,-1.37795 h 1.07516 V 118.74 c -0.50404,0.15411 -1.00808,0.27015 -1.51031,0.3463 -0.50404,0.0761 -1.011709,0.11604 -1.519369,0.11604 -1.4251,0 -2.51296,-0.388 -3.2672,-1.1622 -0.75607,-0.77419 -1.135,-1.88925 -1.135,-3.34516 0,-1.3979 0.39706,-2.48576 1.19301,-3.26539 0.79233,-0.77782 1.90738,-1.16582 3.33973,-1.16582 0.41701,0 0.866659,0.0417 1.347129,0.1251 0.48229,0.087 1.00083,0.21576 1.55201,0.38256 l 0,0 z m 5.60248,0.54212 c -0.73975,0 -1.30725,0.2901 -1.70069,0.8721 -0.39163,0.57838 -0.58744,1.41966 -0.58744,2.52565 0,1.09329 0.19762,1.93094 0.59288,2.51476 0.39525,0.58382 0.95913,0.87391 1.69525,0.87391 0.73974,0 1.30543,-0.2919 1.69887,-0.86847 0.39344,-0.57838 0.58744,-1.41784 0.58744,-2.5202 0,-1.10962 -0.194,-1.94908 -0.58563,-2.52928 -0.39163,-0.58019 -0.95731,-0.86847 -1.70068,-0.86847 l 0,0 z m 0,-1.04616 c 1.35438,0 2.41142,0.38801 3.16385,1.16582 0.75244,0.77964 1.12956,1.87656 1.12956,3.29078 0,1.41784 -0.37712,2.51658 -1.12956,3.29983 -0.75243,0.78689 -1.80947,1.17852 -3.16385,1.17852 -1.3562,0 -2.41324,-0.39344 -3.16567,-1.17852 -0.75244,-0.78507 -1.12956,-1.88199 -1.12956,-3.29983 0,-1.41422 0.37712,-2.51296 1.12774,-3.29078 0.75063,-0.77781 1.80766,-1.16582 3.16749,-1.16582 l 0,0 z m 9.83968,1.04616 c -0.73975,0 -1.30725,0.2901 -1.70069,0.8721 -0.39163,0.57838 -0.58744,1.41966 -0.58744,2.52565 0,1.09329 0.19762,1.93094 0.59288,2.51476 0.39526,0.58201 0.95913,0.87391 1.69525,0.87391 0.73974,0 1.30543,-0.2919 1.69887,-0.86847 0.39163,-0.57838 0.58744,-1.41784 0.58744,-2.5202 0,-1.10962 -0.194,-1.94908 -0.58381,-2.52928 -0.39163,-0.57837 -0.95913,-0.86847 -1.7025,-0.86847 l 0,0 z m 0,-1.04616 c 1.35438,0 2.41142,0.38801 3.16385,1.16582 0.75425,0.77964 1.12956,1.87656 1.12956,3.29078 0,1.41784 -0.37531,2.51658 -1.12956,3.29983 -0.75243,0.78689 -1.80947,1.17852 -3.16385,1.17852 -1.3562,0 -2.41324,-0.39344 -3.16567,-1.17852 -0.75244,-0.78507 -1.12956,-1.88199 -1.12956,-3.29983 0,-1.41422 0.37712,-2.51296 1.12774,-3.29078 0.75063,-0.77781 1.80766,-1.16582 3.16749,-1.16582 l 0,0 z m 8.26772,1.18396 v 3.04963 h 0.73431 c 0.53667,0 0.93556,-0.13055 1.20208,-0.39707 0.26653,-0.26653 0.40251,-0.66722 0.40251,-1.2039 0,-0.46597 -0.14142,-0.82315 -0.42608,-1.07517 -0.28284,-0.24839 -0.68535,-0.37349 -1.20571,-0.37349 h -0.70711 l 0,0 z m -2.94809,-0.98633 h 3.56092 c 1.26917,0 2.18116,0.194 2.73415,0.58382 0.553,0.38981 0.82859,1.0244 0.82859,1.90556 0,0.85397 -0.24659,1.4813 -0.73793,1.882 -0.49317,0.40251 -1.25829,0.60195 -2.30264,0.60195 h -1.135 v 1.72788 c 0,0.41701 0.0653,0.70711 0.19763,0.86303 0.13236,0.15593 0.36262,0.23571 0.69442,0.23571 h 0.16317 v 0.73974 c -0.23751,-0.009 -0.49134,-0.0163 -0.76694,-0.0218 -0.27377,-0.004 -0.68172,-0.007 -1.22928,-0.007 -0.54755,0 -0.96275,0.004 -1.23834,0.007 -0.27741,0.005 -0.53124,0.0127 -0.76875,0.0218 v -0.73974 h 0.18312 c 0.32817,0 0.55843,-0.0798 0.6926,-0.23571 0.13236,-0.15592 0.19944,-0.4442 0.19944,-0.86303 v -4.87905 c 0,-0.41338 -0.0653,-0.69623 -0.19763,-0.85578 -0.13235,-0.15592 -0.36262,-0.23389 -0.69441,-0.23389 h -0.18312 v -0.73249 l 0,0 z m 8.09185,0.0272 h 6.92059 v 2.35521 h -0.79051 v -0.38075 c 0,-0.36262 -0.10516,-0.61464 -0.31366,-0.75969 -0.20851,-0.14142 -0.60195,-0.21394 -1.1767,-0.21394 h -1.71519 v 2.66162 h 0.48409 c 0.48591,0 0.80139,-0.0725 0.94463,-0.21938 0.14686,-0.14324 0.2212,-0.44058 0.22664,-0.89023 l 0.75424,-0.007 v 3.09858 h -0.74699 c -0.0236,-0.44602 -0.10516,-0.73974 -0.24296,-0.87754 -0.13779,-0.14142 -0.4297,-0.21213 -0.87572,-0.21213 h -0.54393 v 2.96079 h 1.55926 c 0.74337,0 1.21478,-0.10516 1.4124,-0.31548 0.19582,-0.20488 0.30098,-0.65997 0.31548,-1.35801 h 0.78326 v 2.67432 h -6.99674 v -0.73975 h 0.16136 c 0.33361,0 0.56206,-0.078 0.69442,-0.22845 0.13236,-0.15411 0.19763,-0.44058 0.19763,-0.86847 v -4.87723 c 0,-0.41339 -0.0653,-0.69805 -0.19763,-0.85397 -0.13236,-0.15593 -0.36262,-0.23571 -0.69442,-0.23571 h -0.16136 v -0.71254 l 0.002,0 z m 10.94204,0.99901 v 2.83206 h 0.63822 c 0.62914,0 1.08241,-0.10697 1.35619,-0.32273 0.27378,-0.21576 0.41158,-0.5675 0.41158,-1.05885 0,-0.5131 -0.13417,-0.88298 -0.39526,-1.1078 -0.2629,-0.22845 -0.69623,-0.34086 -1.30362,-0.34086 h -0.70711 l 0,-0.002 z m -2.92815,-1.02621 h 3.54098 c 1.26736,0 2.18297,0.18131 2.74141,0.5403 0.55662,0.359 0.83583,0.94463 0.83583,1.75146 0,0.52217 -0.12873,0.95006 -0.38619,1.2873 -0.25564,0.33723 -0.62914,0.56206 -1.11868,0.67991 0.33724,0.0489 0.58926,0.16318 0.75969,0.34086 0.16862,0.17768 0.32454,0.52761 0.46597,1.05522 0.0344,0.12873 0.0816,0.31548 0.13417,0.55118 0.16499,0.67085 0.31004,1.08242 0.43695,1.23291 0.10335,0.11966 0.22664,0.21213 0.3735,0.27196 0.14686,0.058 0.31729,0.0888 0.51855,0.0888 h 0.0671 v 0.73974 h -2.56009 c -0.20488,-0.4569 -0.37713,-1.02803 -0.52036,-1.71338 -0.14324,-0.68535 -0.24477,-1.11324 -0.30279,-1.28004 -0.0943,-0.27016 -0.25383,-0.47141 -0.47684,-0.5947 -0.2212,-0.1251 -0.52762,-0.18856 -0.91743,-0.18856 h -0.66541 v 1.9382 c 0,0.41701 0.0653,0.70529 0.19582,0.86303 0.13235,0.15593 0.36262,0.23571 0.69441,0.23571 h 0.17769 v 0.73974 c -0.23208,-0.009 -0.48591,-0.0163 -0.7615,-0.0218 -0.27741,-0.004 -0.68536,-0.007 -1.22747,-0.007 -0.553,0 -0.96638,0.004 -1.24016,0.007 -0.27559,0.005 -0.52943,0.0127 -0.76694,0.0218 v -0.73974 h 0.16318 c 0.33179,0 0.56206,-0.0798 0.69441,-0.23571 0.13236,-0.15774 0.19582,-0.4442 0.19582,-0.86303 v -4.87905 c 0,-0.41338 -0.0653,-0.69623 -0.19582,-0.85578 -0.13417,-0.15592 -0.36262,-0.23389 -0.69441,-0.23389 h -0.16318 v -0.73249 l 0.002,0 z m 12.61554,1.04072 -1.27099,3.55367 h 2.4078 l -1.13681,-3.55367 0,0 z m -1.04616,-1.04072 h 2.28631 l 2.46219,6.45282 c 0.21939,0.55662 0.40432,0.91561 0.56206,1.07516 0.15593,0.15774 0.36081,0.25021 0.6092,0.27197 v 0.73974 c -0.22663,-0.009 -0.47866,-0.0163 -0.75243,-0.0218 -0.27378,-0.004 -0.68354,-0.007 -1.22928,-0.007 -0.54393,0 -0.95188,0.004 -1.22384,0.007 -0.27197,0.005 -0.5258,0.0127 -0.76151,0.0218 v -0.73249 c 0.39889,-0.0199 0.67629,-0.0743 0.82678,-0.16862 0.15048,-0.0925 0.22663,-0.24839 0.22663,-0.46597 0,-0.0634 -0.0109,-0.15048 -0.0363,-0.25927 -0.0199,-0.1106 -0.0544,-0.23751 -0.0997,-0.38075 l -0.30641,-0.90655 h -3.13666 l -0.36081,1.08967 c -0.0381,0.10516 -0.0635,0.19219 -0.078,0.26472 -0.0163,0.0743 -0.0236,0.14142 -0.0236,0.20306 0,0.21758 0.0635,0.36988 0.18675,0.45328 0.1251,0.0834 0.40432,0.13961 0.83402,0.16862 v 0.73249 c -0.23026,-0.009 -0.47865,-0.0163 -0.74337,-0.0218 -0.26652,-0.004 -0.65996,-0.007 -1.18214,-0.007 -0.50766,0 -0.88479,0.004 -1.12956,0.007 -0.24658,0.005 -0.4714,0.0127 -0.67991,0.0218 v -0.73249 c 0.24296,-0.0145 0.45328,-0.11423 0.62189,-0.30098 0.16862,-0.18675 0.35175,-0.52398 0.54756,-1.01533 l 2.58004,-6.48908 0,0 z m 5.42479,0 c 0.67628,0 1.39971,0.005 2.17753,0.0199 0.22301,0.005 0.3608,0.007 0.4152,0.007 h 2.35521 c 0.058,0 0.20488,-0.002 0.43514,-0.007 0.80321,-0.0145 1.54839,-0.0199 2.23918,-0.0199 v 2.57097 h -0.91924 v -0.21938 c 0,-0.52399 -0.0888,-0.87754 -0.2629,-1.05704 -0.17587,-0.17768 -0.52942,-0.26834 -1.06973,-0.26834 H 160.734 v 5.67681 c 0,0.41702 0.0671,0.7053 0.19944,0.86304 0.13599,0.15592 0.36806,0.2357 0.69986,0.2357 h 0.29191 v 0.73974 c -0.25202,-0.009 -0.52761,-0.0163 -0.81771,-0.0217 -0.29009,-0.004 -0.72343,-0.007 -1.30724,-0.007 -0.58563,0 -1.0244,0.004 -1.31812,0.007 -0.29191,0.005 -0.56388,0.0127 -0.81227,0.0217 v -0.73974 h 0.29372 c 0.32817,0 0.55843,-0.0798 0.69079,-0.2357 0.13236,-0.15774 0.20125,-0.44421 0.20125,-0.86304 v -5.67681 h -0.75606 c -0.48047,0 -0.81045,0.087 -0.98632,0.25746 -0.17587,0.16862 -0.26472,0.47866 -0.26472,0.92831 0,0.0906 0.002,0.16137 0.004,0.21213 0.002,0.0471 0.004,0.0997 0.009,0.14868 h -0.87754 v -2.57279 l 0,0 z m 8.47442,0 c 0.54755,0.009 0.96094,0.0163 1.23834,0.0199 0.27559,0.005 0.53305,0.007 0.76875,0.007 0.22664,0 0.48048,-0.002 0.75607,-0.007 0.27559,-0.004 0.68897,-0.0109 1.23834,-0.0199 v 0.73249 h -0.18312 c -0.3318,0 -0.56206,0.078 -0.69442,0.23389 -0.13235,0.15955 -0.19581,0.4424 -0.19581,0.85578 v 4.87905 c 0,0.41701 0.0671,0.70529 0.19944,0.86303 0.13598,0.15593 0.36443,0.23571 0.6926,0.23571 h 0.18313 v 0.73974 c -0.23571,-0.009 -0.48954,-0.0163 -0.76513,-0.0218 -0.27378,-0.004 -0.68354,-0.007 -1.22928,-0.007 -0.553,0 -0.96638,0.004 -1.24197,0.007 -0.2756,0.005 -0.52943,0.0127 -0.76513,0.0218 v -0.73974 h 0.16136 c 0.33361,0 0.56206,-0.0798 0.69442,-0.23571 0.13236,-0.15774 0.19763,-0.4442 0.19763,-0.86303 v -4.87905 c 0,-0.41338 -0.0653,-0.69623 -0.19763,-0.85578 -0.13236,-0.15592 -0.36262,-0.23389 -0.69442,-0.23389 h -0.16136 v -0.73249 l -0.002,0 z m 4.52186,0 c 0.31004,0.009 0.58563,0.0163 0.8304,0.0199 0.24658,0.005 0.48591,0.007 0.72161,0.007 0.359,0 0.97364,-0.009 1.84574,-0.0272 0.0943,0 0.1668,0 0.21938,0 v 0.73249 c -0.43696,0.0199 -0.71436,0.058 -0.8304,0.12148 -0.11966,0.0635 -0.17768,0.17768 -0.17768,0.34086 0,0.0453 0.007,0.0997 0.0199,0.16499 0.0145,0.0635 0.0363,0.13236 0.0671,0.20851 l 1.88018,5.4538 1.79678,-5.42479 c 0.0181,-0.058 0.0326,-0.11785 0.0399,-0.18131 0.0109,-0.0598 0.0145,-0.12148 0.0145,-0.1795 0,-0.17768 -0.078,-0.30641 -0.23389,-0.38619 -0.15955,-0.0798 -0.4152,-0.11785 -0.76694,-0.11785 v -0.73249 c 0.0381,0 0.087,0 0.15412,0 0.78688,0.0181 1.35438,0.0272 1.70975,0.0272 0.21394,0 0.43877,-0.002 0.68172,-0.007 0.23933,-0.004 0.553,-0.0109 0.93919,-0.0199 v 0.73249 c -0.23389,0.0453 -0.4152,0.13236 -0.54393,0.2629 -0.13236,0.12692 -0.25021,0.34086 -0.34812,0.63096 l -2.51114,7.05114 h -2.0216 l -2.59273,-6.99675 c -0.12692,-0.34811 -0.25565,-0.58925 -0.38075,-0.7198 -0.12692,-0.13235 -0.29735,-0.20488 -0.5113,-0.22482 v -0.73612 l -0.002,0 z m 13.64175,0.84853 c -0.73975,0 -1.30725,0.2901 -1.70069,0.8721 -0.39344,0.57838 -0.58744,1.41966 -0.58744,2.52565 0,1.09329 0.19581,1.93094 0.59107,2.51476 0.39707,0.58201 0.95913,0.87391 1.69706,0.87391 0.73793,0 1.30543,-0.2919 1.69887,-0.86847 0.39344,-0.57838 0.58744,-1.41784 0.58744,-2.5202 0,-1.10962 -0.194,-1.94908 -0.58563,-2.52928 -0.38981,-0.57837 -0.95731,-0.86847 -1.70068,-0.86847 l 0,0 z m 0,-1.04616 c 1.35438,0 2.41142,0.38801 3.16385,1.16582 0.75244,0.77964 1.12956,1.87656 1.12956,3.29078 0,1.41784 -0.37712,2.51658 -1.12956,3.29983 -0.75243,0.78689 -1.80947,1.17852 -3.16385,1.17852 -1.3562,0 -2.41323,-0.39344 -3.16567,-1.17852 -0.75244,-0.78507 -1.12956,-1.88199 -1.12956,-3.29983 0,-1.41422 0.37712,-2.51296 1.12593,-3.29078 0.75063,-0.77781 1.80947,-1.16582 3.1693,-1.16582 l 0,0 z m 9.36827,0.19763 c 0.5802,0.009 1.01715,0.0163 1.31087,0.0199 0.29191,0.005 0.56206,0.007 0.80502,0.007 0.24658,0 0.51492,-0.002 0.81045,-0.007 0.29554,-0.004 0.71799,-0.0109 1.26555,-0.0199 v 0.73249 h -0.3735 c -0.33361,0 -0.56388,0.078 -0.69623,0.23389 -0.13054,0.15955 -0.19582,0.4424 -0.19582,0.85578 v 5.68406 h 1.19846 c 0.72887,0 1.19483,-0.10515 1.3979,-0.31366 0.20307,-0.20851 0.30823,-0.64909 0.31729,-1.32538 h 0.79051 v 2.67432 h -6.62868 v -0.73974 h 0.16318 c 0.33179,0 0.56206,-0.0798 0.69441,-0.2357 0.13236,-0.15593 0.19582,-0.44421 0.19582,-0.86304 V 112.289 c 0,-0.41339 -0.0635,-0.69623 -0.19582,-0.85579 -0.13235,-0.15592 -0.36262,-0.23388 -0.69441,-0.23388 h -0.16318 v -0.73431 l -0.002,0 z m 7.34486,0 c 0.54937,0.009 0.96094,0.0163 1.23835,0.0199 0.27559,0.005 0.53486,0.007 0.76875,0.007 0.22845,0 0.48229,-0.002 0.75788,-0.007 0.27559,-0.004 0.69079,-0.0109 1.23834,-0.0199 v 0.73249 h -0.18312 c -0.33361,0 -0.56387,0.078 -0.69623,0.23389 -0.13054,0.15955 -0.19581,0.4424 -0.19581,0.85578 v 4.87905 c 0,0.41701 0.0671,0.70529 0.19944,0.86303 0.13417,0.15593 0.36443,0.23571 0.6926,0.23571 h 0.18312 v 0.73974 c -0.2357,-0.009 -0.48953,-0.0163 -0.76694,-0.0218 -0.27196,-0.004 -0.68172,-0.007 -1.22928,-0.007 -0.55299,0 -0.96457,0.004 -1.24016,0.007 -0.27559,0.005 -0.52942,0.0127 -0.76694,0.0218 v -0.73974 h 0.16318 c 0.3318,0 0.56206,-0.0798 0.69442,-0.23571 0.13235,-0.15774 0.19581,-0.4442 0.19581,-0.86303 v -4.87905 c 0,-0.41338 -0.0635,-0.69623 -0.19581,-0.85578 -0.13236,-0.15592 -0.36262,-0.23389 -0.69442,-0.23389 h -0.16318 v -0.73249 l 0,0 z m 4.99871,0 c 0.51311,0.009 0.90111,0.0163 1.16401,0.0199 0.26471,0.005 0.50586,0.007 0.72705,0.007 0.22302,0 0.46416,-0.002 0.72162,-0.007 0.25746,-0.004 0.64546,-0.0109 1.16401,-0.0199 l 1.72788,5.69494 c 0.0544,0.18312 0.10516,0.37712 0.15411,0.58382 0.0453,0.20488 0.0888,0.42245 0.1251,0.65634 0.0236,-0.19038 0.0544,-0.38982 0.10154,-0.58926 0.0471,-0.20306 0.10516,-0.41882 0.17768,-0.6509 l 1.78409,-5.69494 c 0.4152,0.009 0.75425,0.0163 1.01352,0.0199 0.25746,0.005 0.50042,0.007 0.72887,0.007 0.38075,0 0.98451,-0.009 1.80766,-0.0272 h 0.13054 v 0.73249 h -0.18494 c -0.33179,0 -0.56387,0.0707 -0.69441,0.21757 -0.13236,0.14324 -0.19763,0.40976 -0.19763,0.79051 v 0.0816 l 0.0816,4.87361 c 0.0109,0.4424 0.0798,0.7343 0.20669,0.88298 0.12873,0.14686 0.35718,0.2212 0.68535,0.2212 h 0.17043 v 0.73974 c -0.22845,-0.009 -0.46959,-0.0163 -0.72886,-0.0218 -0.25928,-0.004 -0.64184,-0.007 -1.15857,-0.007 -0.49498,0 -0.86848,0.004 -1.11868,0.007 -0.24658,0.005 -0.47685,0.0127 -0.68898,0.0218 v -0.73974 h 0.18312 c 0.32817,0 0.55844,-0.0798 0.69261,-0.23571 0.13235,-0.15774 0.19944,-0.4442 0.19944,-0.86303 v -5.87262 l -2.41505,7.7111 h -1.70612 l -2.32802,-7.66396 v 5.82548 c 0,0.41701 0.0653,0.70529 0.19763,0.86303 0.13054,0.15593 0.3608,0.23571 0.69441,0.23571 h 0.16318 v 0.73974 c -0.19944,-0.009 -0.42064,-0.0163 -0.66541,-0.0218 -0.24114,-0.004 -0.61464,-0.007 -1.11505,-0.007 -0.50404,0 -0.88479,0.004 -1.14588,0.007 -0.25927,0.005 -0.49679,0.0127 -0.7198,0.0218 v -0.73974 h 0.16318 c 0.32817,0 0.55481,-0.0743 0.68535,-0.22664 0.12692,-0.14867 0.19582,-0.43877 0.20669,-0.87029 l 0.0888,-4.87904 v -0.0671 c 0,-0.37894 -0.0707,-0.64183 -0.2067,-0.79413 -0.13961,-0.15049 -0.37349,-0.22664 -0.7071,-0.22664 h -0.16318 v -0.73612 l -0.002,0 z m 12.59922,0 c 0.54755,0.009 0.96094,0.0163 1.23834,0.0199 0.2756,0.005 0.53487,0.007 0.76876,0.007 0.22845,0 0.48228,-0.002 0.75787,-0.007 0.27559,-0.004 0.68898,-0.0109 1.23835,-0.0199 v 0.73249 h -0.18494 c -0.33179,0 -0.56206,0.078 -0.69441,0.23389 -0.13055,0.15955 -0.19763,0.4424 -0.19763,0.85578 v 4.87905 c 0,0.41701 0.0689,0.70529 0.19944,0.86303 0.13417,0.15593 0.36443,0.23571 0.6926,0.23571 h 0.18494 v 0.73974 c -0.23752,-0.009 -0.49135,-0.0163 -0.76694,-0.0218 -0.27378,-0.004 -0.68354,-0.007 -1.22928,-0.007 -0.553,0 -0.96638,0.004 -1.24016,0.007 -0.27559,0.005 -0.52943,0.0127 -0.76694,0.0218 v -0.73974 h 0.16318 c 0.33179,0 0.56206,-0.0798 0.69441,-0.23571 0.13236,-0.15774 0.19582,-0.4442 0.19582,-0.86303 v -4.87905 c 0,-0.41338 -0.0635,-0.69623 -0.19582,-0.85578 -0.13235,-0.15592 -0.36262,-0.23389 -0.69441,-0.23389 h -0.16318 v -0.73249 l 0,0 z m 4.7757,0 c 0.67628,0 1.39971,0.005 2.17572,0.0199 0.22301,0.005 0.3608,0.007 0.4152,0.007 h 2.35521 c 0.058,0 0.20488,-0.002 0.43333,-0.007 0.8032,-0.0145 1.5502,-0.0199 2.23917,-0.0199 v 2.57097 h -0.91924 v -0.21938 c 0,-0.52399 -0.0888,-0.87754 -0.26289,-1.05704 -0.17588,-0.17768 -0.53124,-0.26834 -1.06973,-0.26834 h -0.62008 v 5.67681 c 0,0.41702 0.0671,0.7053 0.19763,0.86304 0.13598,0.15592 0.36805,0.2357 0.69985,0.2357 h 0.29372 v 0.73974 c -0.25383,-0.009 -0.52761,-0.0163 -0.8177,-0.0217 -0.2901,-0.004 -0.72343,-0.007 -1.30906,-0.007 -0.58563,0 -1.02259,0.004 -1.31812,0.007 -0.29191,0.005 -0.56388,0.0127 -0.81227,0.0217 v -0.73974 h 0.29372 c 0.32817,0 0.55844,-0.0798 0.69079,-0.2357 0.13236,-0.15774 0.19944,-0.44421 0.19944,-0.86304 v -5.67681 h -0.75425 c -0.48228,0 -0.81045,0.087 -0.98813,0.25746 -0.17587,0.16862 -0.26472,0.47866 -0.26472,0.92831 0,0.0906 0.002,0.16137 0.005,0.21213 0.002,0.0471 0.004,0.0997 0.009,0.14868 h -0.87754 v -2.57279 l 0.005,0 z m 11.97551,1.04072 -1.27098,3.55367 h 2.4096 l -1.13862,-3.55367 0,0 z m -1.04797,-1.04072 h 2.28813 l 2.46218,6.45282 c 0.21758,0.55662 0.40433,0.91561 0.56388,1.07516 0.15592,0.15774 0.35899,0.25021 0.60739,0.27197 v 0.73974 c -0.22664,-0.009 -0.47866,-0.0163 -0.75244,-0.0218 -0.27196,-0.004 -0.68354,-0.007 -1.22928,-0.007 -0.54393,0 -0.95188,0.004 -1.22384,0.007 -0.27197,0.005 -0.5258,0.0127 -0.76332,0.0218 v -0.73249 c 0.4007,-0.0199 0.67629,-0.0743 0.82859,-0.16862 0.15049,-0.0925 0.22664,-0.24839 0.22664,-0.46597 0,-0.0634 -0.0109,-0.15048 -0.0363,-0.25927 -0.0199,-0.1106 -0.0544,-0.23751 -0.0997,-0.38075 l -0.30642,-0.90655 h -3.13666 l -0.3608,1.08967 c -0.0381,0.10516 -0.0617,0.19219 -0.078,0.26472 -0.0181,0.0743 -0.0236,0.14142 -0.0236,0.20306 0,0.21758 0.0616,0.36988 0.18494,0.45328 0.1251,0.0834 0.40613,0.13961 0.83584,0.16862 v 0.73249 c -0.23208,-0.009 -0.48047,-0.0163 -0.74519,-0.0218 -0.26471,-0.004 -0.65815,-0.007 -1.18032,-0.007 -0.50586,0 -0.88479,0.004 -1.12956,0.007 -0.24658,0.005 -0.47141,0.0127 -0.67991,0.0218 v -0.73249 c 0.24295,-0.0145 0.45327,-0.11423 0.62189,-0.30098 0.17043,-0.18675 0.35355,-0.52398 0.54937,-1.01533 l 2.57641,-6.48908 0,0 z m 9.27037,1.00083 v 6.53803 h 0.89023 c 1.0933,0 1.89468,-0.2774 2.40235,-0.8304 0.50767,-0.55481 0.7615,-1.42509 0.7615,-2.61086 0,-1.06791 -0.26834,-1.85117 -0.80864,-2.34977 -0.5403,-0.49861 -1.39064,-0.747 -2.55103,-0.747 h -0.69441 l 0,0 z m -2.92634,-1.00083 h 3.81657 c 1.76052,0 3.06051,0.33905 3.89816,1.01896 0.83946,0.68173 1.25829,1.73514 1.25829,3.15842 0,1.46135 -0.39526,2.55284 -1.18396,3.27808 -0.78869,0.72161 -1.97446,1.08604 -3.55911,1.08604 h -4.23177 v -0.73974 h 0.16318 c 0.3318,0 0.56206,-0.0798 0.69442,-0.2357 0.13236,-0.15774 0.19763,-0.44421 0.19763,-0.86304 V 112.289 c 0,-0.41339 -0.0653,-0.69623 -0.19763,-0.85579 -0.13236,-0.15592 -0.36262,-0.23388 -0.69442,-0.23388 h -0.16318 v -0.73431 l 0.002,0 z m 14.55192,0.84853 c -0.74156,0 -1.30906,0.2901 -1.70069,0.8721 -0.39344,0.57838 -0.58925,1.41966 -0.58925,2.52565 0,1.09329 0.19762,1.93094 0.59288,2.51476 0.39526,0.58382 0.95913,0.87391 1.69706,0.87391 0.73793,0 1.30543,-0.2919 1.69887,-0.86847 0.39163,-0.57838 0.58745,-1.41784 0.58745,-2.5202 0,-1.10962 -0.19582,-1.94908 -0.58564,-2.52928 -0.38981,-0.58019 -0.95731,-0.86847 -1.70068,-0.86847 l 0,0 z m 0,-1.04616 c 1.35438,0 2.40961,0.38801 3.16385,1.16582 0.75244,0.77964 1.12775,1.87656 1.12775,3.29078 0,1.41784 -0.37531,2.51658 -1.12775,3.29983 -0.75424,0.78689 -1.80947,1.17852 -3.16385,1.17852 -1.3562,0 -2.41323,-0.39344 -3.16567,-1.17852 -0.75243,-0.78507 -1.12956,-1.88199 -1.12956,-3.29983 0,-1.41422 0.37713,-2.51296 1.12593,-3.29078 0.75063,-0.77781 1.80766,-1.16582 3.1693,-1.16582 l 0,0 z"
     id="path3029"
     inkscape:connector-curvature="0"
     style="fill:#ffffff;fill-rule:evenodd" /><polygon
     transform="matrix(1.8130977,0,0,1.8130977,-380.35237,-629.85178)"
     clip-rule="evenodd"
     points="217.504,421.033 217.504,439.112 217.504,439.112 242.611,439.112 242.611,421.033 "
     id="polygon3031"
     style="fill:#ed1c24;fill-rule:evenodd" /><polygon
     transform="matrix(1.8130977,0,0,1.8130977,-380.35237,-629.85178)"
     clip-rule="evenodd"
     points="267.717,421.033 267.717,439.112 267.717,439.112 242.611,439.112 242.611,421.033 "
     id="polygon3033"
     style="fill:#f58220;fill-rule:evenodd" /><polygon
     transform="matrix(1.8130977,0,0,1.8130977,-380.35237,-629.85178)"
     clip-rule="evenodd"
     points="267.717,421.033 267.717,439.112 267.717,439.112 292.824,439.112 292.824,421.033 "
     id="polygon3035"
     style="fill:#ffcb05;fill-rule:evenodd" /><polygon
     transform="matrix(1.8130977,0,0,1.8130977,-380.35237,-629.85178)"
     clip-rule="evenodd"
     points="317.932,421.033 317.932,439.112 317.932,439.112 292.824,439.112 292.824,421.033 "
     id="polygon3037"
     style="fill:#00a651;fill-rule:evenodd" /><polygon
     transform="matrix(1.8130977,0,0,1.8130977,-380.35237,-629.85178)"
     clip-rule="evenodd"
     points="317.932,421.033 317.932,439.112 317.932,439.112 343.038,439.112 343.038,421.033 "
     id="polygon3039"
     style="fill:#00aeef;fill-rule:evenodd" /><polygon
     transform="matrix(1.8130977,0,0,1.8130977,-380.35237,-629.85178)"
     clip-rule="evenodd"
     points="368.146,421.033 368.146,439.112 368.146,439.112 343.038,439.112 343.038,421.033 "
     id="polygon3041"
     style="fill:#9e76b4;fill-rule:evenodd" /><polygon
     transform="matrix(1.8130977,0,0,1.8130977,-380.35237,-629.85178)"
     clip-rule="evenodd"
     points="368.146,421.033 368.146,439.112 368.146,439.112 393.252,439.112 393.252,421.033 "
     id="polygon3043"
     style="fill:#a54686;fill-rule:evenodd" /></g>
</svg>